<svg width="1400" height="1600" viewBox="0 0 1400 1600" fill="none" xmlns="http://www.w3.org/2000/svg">
<g clip-path="url(#clip0_773_20358)">
<rect width="1400" height="1600" rx="80" fill="#0A2926"/>
<rect width="1400" height="176" fill="#0E9384"/>
<rect x="120" y="48" width="80" height="80" rx="20" fill="#0A2926"/>
<path d="M163.72 71.72H156.28C147.3 71.72 140 79.02 140 88C140 96.98 147.3 104.28 156.28 104.28H163.72C172.7 104.28 180 96.98 180 88C180 79.02 172.7 71.72 163.72 71.72ZM163.72 96.84C158.84 96.84 154.88 92.88 154.88 88C154.88 83.12 158.84 79.16 163.72 79.16C168.6 79.16 172.56 83.12 172.56 88C172.56 92.88 168.6 96.84 163.72 96.84Z" fill="white"/>
<path d="M247.078 102H241.18V78.6797H232.938V73.8164H255.34V78.6797H247.078V102ZM264.168 102.371C257.645 102.371 253.562 98.1914 253.562 91.2383C253.562 84.3633 257.703 80.125 264.168 80.125C270.652 80.125 274.773 84.3438 274.773 91.2383C274.773 98.2109 270.691 102.371 264.168 102.371ZM264.168 97.9766C267.176 97.9766 268.973 95.5156 268.973 91.2383C268.973 87 267.156 84.5 264.168 84.5C261.16 84.5 259.344 87.0195 259.344 91.2383C259.344 95.5156 261.16 97.9766 264.168 97.9766ZM287.703 97.4492C290.672 97.4492 292.586 95.0664 292.586 91.2188C292.586 87.3516 290.672 84.8516 287.703 84.8516C284.754 84.8516 282.879 87.3125 282.879 91.1992C282.879 95.1055 284.734 97.4492 287.703 97.4492ZM287.645 109.871C282 109.871 278.035 107.391 277.742 103.523H283.367C283.738 104.949 285.535 105.848 287.781 105.848C290.672 105.848 292.566 104.363 292.566 101.941V98.0938H292.449C291.414 100.398 288.895 101.863 285.789 101.863C280.555 101.863 277.039 97.8008 277.039 91.1797C277.039 84.4414 280.438 80.2422 285.887 80.2422C288.973 80.2422 291.414 81.7852 292.547 84.168H292.645V80.4961H298.27V101.512C298.27 106.629 294.109 109.871 287.645 109.871ZM312 97.4492C314.969 97.4492 316.883 95.0664 316.883 91.2188C316.883 87.3516 314.969 84.8516 312 84.8516C309.051 84.8516 307.176 87.3125 307.176 91.1992C307.176 95.1055 309.031 97.4492 312 97.4492ZM311.941 109.871C306.297 109.871 302.332 107.391 302.039 103.523H307.664C308.035 104.949 309.832 105.848 312.078 105.848C314.969 105.848 316.863 104.363 316.863 101.941V98.0938H316.746C315.711 100.398 313.191 101.863 310.086 101.863C304.852 101.863 301.336 97.8008 301.336 91.1797C301.336 84.4414 304.734 80.2422 310.184 80.2422C313.27 80.2422 315.711 81.7852 316.844 84.168H316.941V80.4961H322.566V101.512C322.566 106.629 318.406 109.871 311.941 109.871ZM326.59 102V72.4688H332.293V102H326.59ZM345.906 84.3828C343.309 84.3828 341.395 86.2773 341.199 89.0312H350.477C350.379 86.2188 348.543 84.3828 345.906 84.3828ZM350.555 95.4375H355.809C355.184 99.5977 351.297 102.371 346.062 102.371C339.52 102.371 335.516 98.1719 335.516 91.3359C335.516 84.5 339.539 80.125 345.848 80.125C352.039 80.125 355.984 84.2656 355.984 90.8086V92.5664H341.141V92.918C341.141 96.0234 343.152 98.1133 346.16 98.1133C348.309 98.1133 350.008 97.0977 350.555 95.4375Z" fill="white"/>
<path d="M1229.73 80.9082V89.7266C1229.73 91.5332 1230.79 92.7148 1232.69 92.7148C1234.57 92.7148 1235.63 91.5332 1235.63 89.7266V80.9082H1238.58V90.0195C1238.58 93.125 1236.29 95.2441 1232.69 95.2441C1229.07 95.2441 1226.78 93.125 1226.78 90.0195V80.9082H1229.73ZM1243.89 95H1240.94V80.9082H1243.89V95ZM1253.48 95H1250.53V80.9082H1253.48V87.334H1253.56L1258.86 80.9082H1262.14L1256.92 87.1582L1262.5 95H1258.97L1254.79 89.1113L1253.48 90.6934V95ZM1266.7 95H1263.75V80.9082H1266.7V95ZM1275.41 95H1272.46V83.3398H1268.34V80.9082H1279.54V83.3398H1275.41V95Z" fill="white"/>
<path d="M148.578 360.234V362H141.391V350.727H143.406V360.234H148.578ZM150.57 362V353.453H152.5V362H150.57ZM151.531 352.062C151.182 352.062 150.896 351.964 150.672 351.766C150.448 351.562 150.336 351.305 150.336 350.992C150.336 350.68 150.448 350.424 150.672 350.227C150.896 350.023 151.182 349.922 151.531 349.922C151.885 349.922 152.172 350.023 152.391 350.227C152.615 350.424 152.727 350.68 152.727 350.992C152.727 351.305 152.615 351.562 152.391 351.766C152.172 351.964 151.885 352.062 151.531 352.062ZM160.164 359.578C160.549 359.099 160.742 358.451 160.742 357.633C160.742 356.815 160.549 356.167 160.164 355.688C159.779 355.203 159.25 354.961 158.578 354.961C157.911 354.961 157.391 355.201 157.016 355.68C156.646 356.159 156.461 356.81 156.461 357.633C156.461 358.456 156.646 359.107 157.016 359.586C157.385 360.06 157.906 360.297 158.578 360.297C159.25 360.297 159.779 360.057 160.164 359.578ZM158.578 365.25C157.49 365.25 156.604 365.029 155.922 364.586C155.245 364.143 154.867 363.552 154.789 362.812H156.734C156.797 363.109 156.992 363.344 157.32 363.516C157.654 363.688 158.083 363.773 158.609 363.773C159.271 363.773 159.786 363.625 160.156 363.328C160.526 363.031 160.711 362.615 160.711 362.078V360.461H160.578C160.333 360.919 159.984 361.271 159.531 361.516C159.083 361.755 158.562 361.875 157.969 361.875C156.896 361.875 156.044 361.492 155.414 360.727C154.784 359.956 154.469 358.924 154.469 357.633C154.469 356.32 154.786 355.273 155.422 354.492C156.057 353.706 156.917 353.312 158 353.312C158.583 353.312 159.112 353.448 159.586 353.719C160.06 353.99 160.414 354.357 160.648 354.82H160.781V353.453H162.648V362.031C162.648 363.021 162.281 363.805 161.547 364.383C160.812 364.961 159.823 365.25 158.578 365.25ZM165.109 362V350.148H167.016V354.836H167.156C167.359 354.352 167.685 353.974 168.133 353.703C168.581 353.432 169.12 353.297 169.75 353.297C170.672 353.297 171.391 353.576 171.906 354.133C172.427 354.69 172.688 355.474 172.688 356.484V362H170.75V356.945C170.75 356.299 170.604 355.812 170.312 355.484C170.021 355.151 169.594 354.984 169.031 354.984C168.406 354.984 167.919 355.172 167.57 355.547C167.221 355.917 167.047 356.414 167.047 357.039V362H165.109ZM175.602 351.359H177.531V353.508H179.359V355.055H177.531V359.25C177.531 359.672 177.625 359.982 177.812 360.18C178 360.372 178.297 360.469 178.703 360.469C178.88 360.469 179.099 360.456 179.359 360.43V361.945C179.036 362.008 178.698 362.039 178.344 362.039C177.365 362.039 176.661 361.859 176.234 361.5C175.812 361.141 175.602 360.547 175.602 359.719V355.055H174.25V353.508H175.602V351.359ZM186.516 364.359H184.758L188.062 350.727H189.852L186.516 364.359ZM200.758 350.445C202.393 350.445 203.688 350.977 204.641 352.039C205.599 353.102 206.078 354.542 206.078 356.359C206.078 358.177 205.602 359.62 204.648 360.688C203.695 361.75 202.398 362.281 200.758 362.281C199.107 362.281 197.802 361.75 196.844 360.688C195.891 359.625 195.414 358.182 195.414 356.359C195.414 354.542 195.893 353.102 196.852 352.039C197.815 350.977 199.117 350.445 200.758 350.445ZM200.758 352.234C199.753 352.234 198.953 352.607 198.359 353.352C197.771 354.096 197.477 355.099 197.477 356.359C197.477 357.625 197.768 358.63 198.352 359.375C198.94 360.12 199.742 360.492 200.758 360.492C201.758 360.492 202.549 360.12 203.133 359.375C203.721 358.625 204.016 357.62 204.016 356.359C204.016 355.099 203.721 354.096 203.133 353.352C202.549 352.607 201.758 352.234 200.758 352.234ZM208.188 362V353.453H210.055V354.82H210.188C210.396 354.331 210.714 353.953 211.141 353.688C211.573 353.417 212.102 353.281 212.727 353.281C213.674 353.281 214.401 353.557 214.906 354.109C215.417 354.661 215.672 355.448 215.672 356.469V362H213.734V356.93C213.734 355.622 213.159 354.969 212.008 354.969C211.43 354.969 210.971 355.154 210.633 355.523C210.294 355.893 210.125 356.393 210.125 357.023V362H208.188Z" fill="white" fill-opacity="0.6"/>
<path d="M148.578 510.234V512H141.391V500.727H143.406V510.234H148.578ZM150.57 512V503.453H152.5V512H150.57ZM151.531 502.062C151.182 502.062 150.896 501.964 150.672 501.766C150.448 501.562 150.336 501.305 150.336 500.992C150.336 500.68 150.448 500.424 150.672 500.227C150.896 500.023 151.182 499.922 151.531 499.922C151.885 499.922 152.172 500.023 152.391 500.227C152.615 500.424 152.727 500.68 152.727 500.992C152.727 501.305 152.615 501.562 152.391 501.766C152.172 501.964 151.885 502.062 151.531 502.062ZM160.164 509.578C160.549 509.099 160.742 508.451 160.742 507.633C160.742 506.815 160.549 506.167 160.164 505.688C159.779 505.203 159.25 504.961 158.578 504.961C157.911 504.961 157.391 505.201 157.016 505.68C156.646 506.159 156.461 506.81 156.461 507.633C156.461 508.456 156.646 509.107 157.016 509.586C157.385 510.06 157.906 510.297 158.578 510.297C159.25 510.297 159.779 510.057 160.164 509.578ZM158.578 515.25C157.49 515.25 156.604 515.029 155.922 514.586C155.245 514.143 154.867 513.552 154.789 512.812H156.734C156.797 513.109 156.992 513.344 157.32 513.516C157.654 513.688 158.083 513.773 158.609 513.773C159.271 513.773 159.786 513.625 160.156 513.328C160.526 513.031 160.711 512.615 160.711 512.078V510.461H160.578C160.333 510.919 159.984 511.271 159.531 511.516C159.083 511.755 158.562 511.875 157.969 511.875C156.896 511.875 156.044 511.492 155.414 510.727C154.784 509.956 154.469 508.924 154.469 507.633C154.469 506.32 154.786 505.273 155.422 504.492C156.057 503.706 156.917 503.312 158 503.312C158.583 503.312 159.112 503.448 159.586 503.719C160.06 503.99 160.414 504.357 160.648 504.82H160.781V503.453H162.648V512.031C162.648 513.021 162.281 513.805 161.547 514.383C160.812 514.961 159.823 515.25 158.578 515.25ZM165.109 512V500.148H167.016V504.836H167.156C167.359 504.352 167.685 503.974 168.133 503.703C168.581 503.432 169.12 503.297 169.75 503.297C170.672 503.297 171.391 503.576 171.906 504.133C172.427 504.69 172.688 505.474 172.688 506.484V512H170.75V506.945C170.75 506.299 170.604 505.812 170.312 505.484C170.021 505.151 169.594 504.984 169.031 504.984C168.406 504.984 167.919 505.172 167.57 505.547C167.221 505.917 167.047 506.414 167.047 507.039V512H165.109ZM175.602 501.359H177.531V503.508H179.359V505.055H177.531V509.25C177.531 509.672 177.625 509.982 177.812 510.18C178 510.372 178.297 510.469 178.703 510.469C178.88 510.469 179.099 510.456 179.359 510.43V511.945C179.036 512.008 178.698 512.039 178.344 512.039C177.365 512.039 176.661 511.859 176.234 511.5C175.812 511.141 175.602 510.547 175.602 509.719V505.055H174.25V503.508H175.602V501.359ZM186.516 514.359H184.758L188.062 500.727H189.852L186.516 514.359ZM200.758 500.445C202.393 500.445 203.688 500.977 204.641 502.039C205.599 503.102 206.078 504.542 206.078 506.359C206.078 508.177 205.602 509.62 204.648 510.688C203.695 511.75 202.398 512.281 200.758 512.281C199.107 512.281 197.802 511.75 196.844 510.688C195.891 509.625 195.414 508.182 195.414 506.359C195.414 504.542 195.893 503.102 196.852 502.039C197.815 500.977 199.117 500.445 200.758 500.445ZM200.758 502.234C199.753 502.234 198.953 502.607 198.359 503.352C197.771 504.096 197.477 505.099 197.477 506.359C197.477 507.625 197.768 508.63 198.352 509.375C198.94 510.12 199.742 510.492 200.758 510.492C201.758 510.492 202.549 510.12 203.133 509.375C203.721 508.625 204.016 507.62 204.016 506.359C204.016 505.099 203.721 504.096 203.133 503.352C202.549 502.607 201.758 502.234 200.758 502.234ZM208.812 512V505.055H207.414V503.508H208.812V502.672C208.812 501.818 209.049 501.195 209.523 500.805C210.003 500.414 210.721 500.219 211.68 500.219C211.977 500.219 212.302 500.247 212.656 500.305V501.75C212.438 501.708 212.19 501.688 211.914 501.688C211.508 501.688 211.206 501.779 211.008 501.961C210.815 502.143 210.719 502.43 210.719 502.82V503.508H212.578V505.055H210.742V512H208.812ZM215.125 512V505.055H213.727V503.508H215.125V502.672C215.125 501.818 215.362 501.195 215.836 500.805C216.315 500.414 217.034 500.219 217.992 500.219C218.289 500.219 218.615 500.247 218.969 500.305V501.75C218.75 501.708 218.503 501.688 218.227 501.688C217.82 501.688 217.518 501.779 217.32 501.961C217.128 502.143 217.031 502.43 217.031 502.82V503.508H218.891V505.055H217.055V512H215.125Z" fill="white" fill-opacity="0.6"/>
<path d="M141.391 650.727H145.617C147.294 650.727 148.596 651.216 149.523 652.195C150.456 653.169 150.922 654.542 150.922 656.312C150.922 658.12 150.458 659.521 149.531 660.516C148.609 661.505 147.305 662 145.617 662H141.391V650.727ZM143.406 652.469V660.258H145.352C146.477 660.258 147.344 659.919 147.953 659.242C148.562 658.565 148.867 657.599 148.867 656.344C148.867 655.115 148.557 654.161 147.938 653.484C147.323 652.807 146.461 652.469 145.352 652.469H143.406ZM155.891 660.617C156.474 660.617 156.961 660.451 157.352 660.117C157.742 659.779 157.938 659.362 157.938 658.867V658.188L156.008 658.312C154.945 658.38 154.414 658.766 154.414 659.469C154.414 659.823 154.549 660.104 154.82 660.312C155.096 660.516 155.453 660.617 155.891 660.617ZM155.32 662.141C154.487 662.141 153.807 661.906 153.281 661.438C152.755 660.969 152.492 660.349 152.492 659.578C152.492 658.807 152.771 658.203 153.328 657.766C153.891 657.328 154.693 657.078 155.734 657.016L157.938 656.883V656.164C157.938 655.742 157.799 655.419 157.523 655.195C157.247 654.971 156.849 654.859 156.328 654.859C155.88 654.859 155.51 654.938 155.219 655.094C154.927 655.245 154.737 655.464 154.648 655.75H152.82C152.898 654.995 153.263 654.396 153.914 653.953C154.57 653.505 155.406 653.281 156.422 653.281C157.516 653.281 158.359 653.534 158.953 654.039C159.552 654.544 159.852 655.253 159.852 656.164V662H157.984V660.828H157.852C157.612 661.24 157.268 661.562 156.82 661.797C156.378 662.026 155.878 662.141 155.32 662.141ZM162.188 662V653.453H164.055V654.781H164.188C164.307 654.354 164.576 654.003 164.992 653.727C165.414 653.451 165.898 653.312 166.445 653.312C166.794 653.312 167.062 653.341 167.25 653.398V655.195C167.052 655.122 166.721 655.086 166.258 655.086C165.628 655.086 165.115 655.268 164.719 655.633C164.323 655.992 164.125 656.469 164.125 657.062V662H162.188ZM170.992 656.938L174.148 653.453H176.398L172.992 657.117L176.633 662H174.289L171.547 658.336L170.859 659.023V662H168.922V650.148H170.859V656.938H170.992ZM183.344 664.359H181.586L184.891 650.727H186.68L183.344 664.359ZM197.586 650.445C199.221 650.445 200.516 650.977 201.469 652.039C202.427 653.102 202.906 654.542 202.906 656.359C202.906 658.177 202.43 659.62 201.477 660.688C200.523 661.75 199.227 662.281 197.586 662.281C195.935 662.281 194.63 661.75 193.672 660.688C192.719 659.625 192.242 658.182 192.242 656.359C192.242 654.542 192.721 653.102 193.68 652.039C194.643 650.977 195.945 650.445 197.586 650.445ZM197.586 652.234C196.581 652.234 195.781 652.607 195.188 653.352C194.599 654.096 194.305 655.099 194.305 656.359C194.305 657.625 194.596 658.63 195.18 659.375C195.768 660.12 196.57 660.492 197.586 660.492C198.586 660.492 199.378 660.12 199.961 659.375C200.549 658.625 200.844 657.62 200.844 656.359C200.844 655.099 200.549 654.096 199.961 653.352C199.378 652.607 198.586 652.234 197.586 652.234ZM205.016 662V653.453H206.883V654.82H207.016C207.224 654.331 207.542 653.953 207.969 653.688C208.401 653.417 208.93 653.281 209.555 653.281C210.503 653.281 211.229 653.557 211.734 654.109C212.245 654.661 212.5 655.448 212.5 656.469V662H210.562V656.93C210.562 655.622 209.987 654.969 208.836 654.969C208.258 654.969 207.799 655.154 207.461 655.523C207.122 655.893 206.953 656.393 206.953 657.023V662H205.016Z" fill="white" fill-opacity="0.6"/>
<path d="M141.391 800.727H145.617C147.294 800.727 148.596 801.216 149.523 802.195C150.456 803.169 150.922 804.542 150.922 806.312C150.922 808.12 150.458 809.521 149.531 810.516C148.609 811.505 147.305 812 145.617 812H141.391V800.727ZM143.406 802.469V810.258H145.352C146.477 810.258 147.344 809.919 147.953 809.242C148.562 808.565 148.867 807.599 148.867 806.344C148.867 805.115 148.557 804.161 147.938 803.484C147.323 802.807 146.461 802.469 145.352 802.469H143.406ZM155.891 810.617C156.474 810.617 156.961 810.451 157.352 810.117C157.742 809.779 157.938 809.362 157.938 808.867V808.188L156.008 808.312C154.945 808.38 154.414 808.766 154.414 809.469C154.414 809.823 154.549 810.104 154.82 810.312C155.096 810.516 155.453 810.617 155.891 810.617ZM155.32 812.141C154.487 812.141 153.807 811.906 153.281 811.438C152.755 810.969 152.492 810.349 152.492 809.578C152.492 808.807 152.771 808.203 153.328 807.766C153.891 807.328 154.693 807.078 155.734 807.016L157.938 806.883V806.164C157.938 805.742 157.799 805.419 157.523 805.195C157.247 804.971 156.849 804.859 156.328 804.859C155.88 804.859 155.51 804.938 155.219 805.094C154.927 805.245 154.737 805.464 154.648 805.75H152.82C152.898 804.995 153.263 804.396 153.914 803.953C154.57 803.505 155.406 803.281 156.422 803.281C157.516 803.281 158.359 803.534 158.953 804.039C159.552 804.544 159.852 805.253 159.852 806.164V812H157.984V810.828H157.852C157.612 811.24 157.268 811.562 156.82 811.797C156.378 812.026 155.878 812.141 155.32 812.141ZM162.188 812V803.453H164.055V804.781H164.188C164.307 804.354 164.576 804.003 164.992 803.727C165.414 803.451 165.898 803.312 166.445 803.312C166.794 803.312 167.062 803.341 167.25 803.398V805.195C167.052 805.122 166.721 805.086 166.258 805.086C165.628 805.086 165.115 805.268 164.719 805.633C164.323 805.992 164.125 806.469 164.125 807.062V812H162.188ZM170.992 806.938L174.148 803.453H176.398L172.992 807.117L176.633 812H174.289L171.547 808.336L170.859 809.023V812H168.922V800.148H170.859V806.938H170.992ZM183.344 814.359H181.586L184.891 800.727H186.68L183.344 814.359ZM197.586 800.445C199.221 800.445 200.516 800.977 201.469 802.039C202.427 803.102 202.906 804.542 202.906 806.359C202.906 808.177 202.43 809.62 201.477 810.688C200.523 811.75 199.227 812.281 197.586 812.281C195.935 812.281 194.63 811.75 193.672 810.688C192.719 809.625 192.242 808.182 192.242 806.359C192.242 804.542 192.721 803.102 193.68 802.039C194.643 800.977 195.945 800.445 197.586 800.445ZM197.586 802.234C196.581 802.234 195.781 802.607 195.188 803.352C194.599 804.096 194.305 805.099 194.305 806.359C194.305 807.625 194.596 808.63 195.18 809.375C195.768 810.12 196.57 810.492 197.586 810.492C198.586 810.492 199.378 810.12 199.961 809.375C200.549 808.625 200.844 807.62 200.844 806.359C200.844 805.099 200.549 804.096 199.961 803.352C199.378 802.607 198.586 802.234 197.586 802.234ZM205.641 812V805.055H204.242V803.508H205.641V802.672C205.641 801.818 205.878 801.195 206.352 800.805C206.831 800.414 207.549 800.219 208.508 800.219C208.805 800.219 209.13 800.247 209.484 800.305V801.75C209.266 801.708 209.018 801.688 208.742 801.688C208.336 801.688 208.034 801.779 207.836 801.961C207.643 802.143 207.547 802.43 207.547 802.82V803.508H209.406V805.055H207.57V812H205.641ZM211.953 812V805.055H210.555V803.508H211.953V802.672C211.953 801.818 212.19 801.195 212.664 800.805C213.143 800.414 213.862 800.219 214.82 800.219C215.117 800.219 215.443 800.247 215.797 800.305V801.75C215.578 801.708 215.331 801.688 215.055 801.688C214.648 801.688 214.346 801.779 214.148 801.961C213.956 802.143 213.859 802.43 213.859 802.82V803.508H215.719V805.055H213.883V812H211.953Z" fill="white" fill-opacity="0.6"/>
<mask id="path-11-inside-1_773_20358" fill="white">
<path d="M120 296H1280V416H120V296Z"/>
</mask>
<path d="M120 296H1280V416H120V296Z" fill="white" fill-opacity="0.015"/>
<path d="M120 296V297H1280V296V295H120V296ZM1280 416V415H120V416V417H1280V416Z" fill="white" fill-opacity="0.2" mask="url(#path-11-inside-1_773_20358)"/>
<mask id="path-13-inside-2_773_20358" fill="white">
<path d="M120 446H1280V566H120V446Z"/>
</mask>
<path d="M120 446H1280V566H120V446Z" fill="white" fill-opacity="0.015"/>
<path d="M120 446V447H1280V446V445H120V446ZM1280 566V565.5H120V566V566.5H1280V566Z" fill="white" fill-opacity="0.2" mask="url(#path-13-inside-2_773_20358)"/>
<mask id="path-15-inside-3_773_20358" fill="white">
<path d="M120 596H1280V716H120V596Z"/>
</mask>
<path d="M120 596H1280V716H120V596Z" fill="white" fill-opacity="0.015"/>
<path d="M120 596V597H1280V596V595H120V596ZM1280 716V715.5H120V716V716.5H1280V716Z" fill="white" fill-opacity="0.2" mask="url(#path-15-inside-3_773_20358)"/>
<mask id="path-17-inside-4_773_20358" fill="white">
<path d="M120 746H1280V866H120V746Z"/>
</mask>
<path d="M120 746H1280V866H120V746Z" fill="white" fill-opacity="0.015"/>
<path d="M120 746V747H1280V746V745H120V746ZM1280 866V865.5H120V866V866.5H1280V866Z" fill="white" fill-opacity="0.2" mask="url(#path-17-inside-4_773_20358)"/>
<rect x="300.5" y="296.5" width="979" height="569" rx="4.5" fill="white" fill-opacity="0.05"/>
<rect x="300.5" y="296.5" width="979" height="569" rx="4.5" stroke="#9747FF" stroke-dasharray="10 5"/>
<g clip-path="url(#clip1_773_20358)">
<rect x="358" y="347" width="48" height="24" rx="12" fill="#134E48"/>
<rect x="358" y="347" width="48" height="24" rx="12" fill="url(#paint0_linear_773_20358)" style="mix-blend-mode:soft-light"/>
<g filter="url(#filter0_ddd_773_20358)">
<rect x="384" y="349" width="20" height="20" rx="10" fill="white"/>
</g>
</g>
<rect x="358.25" y="347.25" width="47.5" height="23.5" rx="11.75" stroke="url(#paint1_linear_773_20358)" stroke-width="0.5"/>
<g clip-path="url(#clip2_773_20358)">
<rect x="360" y="640" width="48" height="24" rx="12" fill="#134E48"/>
<rect x="360" y="640" width="48" height="24" rx="12" fill="url(#paint2_linear_773_20358)" style="mix-blend-mode:soft-light"/>
<g filter="url(#filter1_ddd_773_20358)">
<rect x="386" y="642" width="20" height="20" rx="10" fill="white"/>
</g>
</g>
<rect x="360.25" y="640.25" width="47.5" height="23.5" rx="11.75" stroke="url(#paint3_linear_773_20358)" stroke-width="0.5"/>
<g clip-path="url(#clip3_773_20358)">
<rect x="358" y="500" width="48" height="24" rx="12" fill="white" fill-opacity="0.2"/>
<g filter="url(#filter2_ddd_773_20358)">
<rect x="360" y="502" width="20" height="20" rx="10" fill="white"/>
</g>
</g>
<rect x="358.25" y="500.25" width="47.5" height="23.5" rx="11.75" stroke="white" stroke-opacity="0.2" stroke-width="0.5"/>
<g clip-path="url(#clip4_773_20358)">
<rect x="362" y="793" width="48" height="24" rx="12" fill="#095249"/>
<g filter="url(#filter3_ddd_773_20358)">
<rect x="364" y="795" width="20" height="20" rx="10" fill="white"/>
</g>
</g>
<rect x="362.25" y="793.25" width="47.5" height="23.5" rx="11.75" stroke="white" stroke-opacity="0.05" stroke-width="0.5"/>
</g>
<rect x="2" y="2" width="1396" height="1596" rx="78" stroke="white" stroke-opacity="0.1" stroke-width="4"/>
<defs>
<filter id="filter0_ddd_773_20358" x="378.074" y="345.296" width="31.8519" height="31.8519" filterUnits="userSpaceOnUse" color-interpolation-filters="sRGB">
<feFlood flood-opacity="0" result="BackgroundImageFix"/>
<feColorMatrix in="SourceAlpha" type="matrix" values="0 0 0 0 0 0 0 0 0 0 0 0 0 0 0 0 0 0 127 0" result="hardAlpha"/>
<feOffset dy="2.22222"/>
<feGaussianBlur stdDeviation="0.37037"/>
<feComposite in2="hardAlpha" operator="out"/>
<feColorMatrix type="matrix" values="0 0 0 0 0 0 0 0 0 0 0 0 0 0 0 0 0 0 0.06 0"/>
<feBlend mode="normal" in2="BackgroundImageFix" result="effect1_dropShadow_773_20358"/>
<feColorMatrix in="SourceAlpha" type="matrix" values="0 0 0 0 0 0 0 0 0 0 0 0 0 0 0 0 0 0 127 0" result="hardAlpha"/>
<feOffset dy="2.22222"/>
<feGaussianBlur stdDeviation="2.96296"/>
<feComposite in2="hardAlpha" operator="out"/>
<feColorMatrix type="matrix" values="0 0 0 0 0 0 0 0 0 0 0 0 0 0 0 0 0 0 0.15 0"/>
<feBlend mode="normal" in2="effect1_dropShadow_773_20358" result="effect2_dropShadow_773_20358"/>
<feColorMatrix in="SourceAlpha" type="matrix" values="0 0 0 0 0 0 0 0 0 0 0 0 0 0 0 0 0 0 127 0" result="hardAlpha"/>
<feMorphology radius="0.740741" operator="dilate" in="SourceAlpha" result="effect3_dropShadow_773_20358"/>
<feOffset/>
<feComposite in2="hardAlpha" operator="out"/>
<feColorMatrix type="matrix" values="0 0 0 0 0 0 0 0 0 0 0 0 0 0 0 0 0 0 0.04 0"/>
<feBlend mode="normal" in2="effect2_dropShadow_773_20358" result="effect3_dropShadow_773_20358"/>
<feBlend mode="normal" in="SourceGraphic" in2="effect3_dropShadow_773_20358" result="shape"/>
</filter>
<filter id="filter1_ddd_773_20358" x="380.074" y="638.296" width="31.8519" height="31.8519" filterUnits="userSpaceOnUse" color-interpolation-filters="sRGB">
<feFlood flood-opacity="0" result="BackgroundImageFix"/>
<feColorMatrix in="SourceAlpha" type="matrix" values="0 0 0 0 0 0 0 0 0 0 0 0 0 0 0 0 0 0 127 0" result="hardAlpha"/>
<feOffset dy="2.22222"/>
<feGaussianBlur stdDeviation="0.37037"/>
<feComposite in2="hardAlpha" operator="out"/>
<feColorMatrix type="matrix" values="0 0 0 0 0 0 0 0 0 0 0 0 0 0 0 0 0 0 0.06 0"/>
<feBlend mode="normal" in2="BackgroundImageFix" result="effect1_dropShadow_773_20358"/>
<feColorMatrix in="SourceAlpha" type="matrix" values="0 0 0 0 0 0 0 0 0 0 0 0 0 0 0 0 0 0 127 0" result="hardAlpha"/>
<feOffset dy="2.22222"/>
<feGaussianBlur stdDeviation="2.96296"/>
<feComposite in2="hardAlpha" operator="out"/>
<feColorMatrix type="matrix" values="0 0 0 0 0 0 0 0 0 0 0 0 0 0 0 0 0 0 0.15 0"/>
<feBlend mode="normal" in2="effect1_dropShadow_773_20358" result="effect2_dropShadow_773_20358"/>
<feColorMatrix in="SourceAlpha" type="matrix" values="0 0 0 0 0 0 0 0 0 0 0 0 0 0 0 0 0 0 127 0" result="hardAlpha"/>
<feMorphology radius="0.740741" operator="dilate" in="SourceAlpha" result="effect3_dropShadow_773_20358"/>
<feOffset/>
<feComposite in2="hardAlpha" operator="out"/>
<feColorMatrix type="matrix" values="0 0 0 0 0 0 0 0 0 0 0 0 0 0 0 0 0 0 0.04 0"/>
<feBlend mode="normal" in2="effect2_dropShadow_773_20358" result="effect3_dropShadow_773_20358"/>
<feBlend mode="normal" in="SourceGraphic" in2="effect3_dropShadow_773_20358" result="shape"/>
</filter>
<filter id="filter2_ddd_773_20358" x="354.074" y="498.296" width="31.8519" height="31.8519" filterUnits="userSpaceOnUse" color-interpolation-filters="sRGB">
<feFlood flood-opacity="0" result="BackgroundImageFix"/>
<feColorMatrix in="SourceAlpha" type="matrix" values="0 0 0 0 0 0 0 0 0 0 0 0 0 0 0 0 0 0 127 0" result="hardAlpha"/>
<feOffset dy="2.22222"/>
<feGaussianBlur stdDeviation="0.37037"/>
<feComposite in2="hardAlpha" operator="out"/>
<feColorMatrix type="matrix" values="0 0 0 0 0 0 0 0 0 0 0 0 0 0 0 0 0 0 0.06 0"/>
<feBlend mode="normal" in2="BackgroundImageFix" result="effect1_dropShadow_773_20358"/>
<feColorMatrix in="SourceAlpha" type="matrix" values="0 0 0 0 0 0 0 0 0 0 0 0 0 0 0 0 0 0 127 0" result="hardAlpha"/>
<feOffset dy="2.22222"/>
<feGaussianBlur stdDeviation="2.96296"/>
<feComposite in2="hardAlpha" operator="out"/>
<feColorMatrix type="matrix" values="0 0 0 0 0 0 0 0 0 0 0 0 0 0 0 0 0 0 0.15 0"/>
<feBlend mode="normal" in2="effect1_dropShadow_773_20358" result="effect2_dropShadow_773_20358"/>
<feColorMatrix in="SourceAlpha" type="matrix" values="0 0 0 0 0 0 0 0 0 0 0 0 0 0 0 0 0 0 127 0" result="hardAlpha"/>
<feMorphology radius="0.740741" operator="dilate" in="SourceAlpha" result="effect3_dropShadow_773_20358"/>
<feOffset/>
<feComposite in2="hardAlpha" operator="out"/>
<feColorMatrix type="matrix" values="0 0 0 0 0 0 0 0 0 0 0 0 0 0 0 0 0 0 0.04 0"/>
<feBlend mode="normal" in2="effect2_dropShadow_773_20358" result="effect3_dropShadow_773_20358"/>
<feBlend mode="normal" in="SourceGraphic" in2="effect3_dropShadow_773_20358" result="shape"/>
</filter>
<filter id="filter3_ddd_773_20358" x="358.074" y="791.296" width="31.8519" height="31.8519" filterUnits="userSpaceOnUse" color-interpolation-filters="sRGB">
<feFlood flood-opacity="0" result="BackgroundImageFix"/>
<feColorMatrix in="SourceAlpha" type="matrix" values="0 0 0 0 0 0 0 0 0 0 0 0 0 0 0 0 0 0 127 0" result="hardAlpha"/>
<feOffset dy="2.22222"/>
<feGaussianBlur stdDeviation="0.37037"/>
<feComposite in2="hardAlpha" operator="out"/>
<feColorMatrix type="matrix" values="0 0 0 0 0 0 0 0 0 0 0 0 0 0 0 0 0 0 0.06 0"/>
<feBlend mode="normal" in2="BackgroundImageFix" result="effect1_dropShadow_773_20358"/>
<feColorMatrix in="SourceAlpha" type="matrix" values="0 0 0 0 0 0 0 0 0 0 0 0 0 0 0 0 0 0 127 0" result="hardAlpha"/>
<feOffset dy="2.22222"/>
<feGaussianBlur stdDeviation="2.96296"/>
<feComposite in2="hardAlpha" operator="out"/>
<feColorMatrix type="matrix" values="0 0 0 0 0 0 0 0 0 0 0 0 0 0 0 0 0 0 0.15 0"/>
<feBlend mode="normal" in2="effect1_dropShadow_773_20358" result="effect2_dropShadow_773_20358"/>
<feColorMatrix in="SourceAlpha" type="matrix" values="0 0 0 0 0 0 0 0 0 0 0 0 0 0 0 0 0 0 127 0" result="hardAlpha"/>
<feMorphology radius="0.740741" operator="dilate" in="SourceAlpha" result="effect3_dropShadow_773_20358"/>
<feOffset/>
<feComposite in2="hardAlpha" operator="out"/>
<feColorMatrix type="matrix" values="0 0 0 0 0 0 0 0 0 0 0 0 0 0 0 0 0 0 0.04 0"/>
<feBlend mode="normal" in2="effect2_dropShadow_773_20358" result="effect3_dropShadow_773_20358"/>
<feBlend mode="normal" in="SourceGraphic" in2="effect3_dropShadow_773_20358" result="shape"/>
</filter>
<linearGradient id="paint0_linear_773_20358" x1="406.667" y1="371.565" x2="389.101" y2="331.214" gradientUnits="userSpaceOnUse">
<stop stop-color="#15B79E"/>
<stop offset="0.18" stop-color="#2ED3B7" stop-opacity="0"/>
<stop offset="0.835" stop-color="#99F6E0"/>
</linearGradient>
<linearGradient id="paint1_linear_773_20358" x1="358" y1="347" x2="378.192" y2="387.961" gradientUnits="userSpaceOnUse">
<stop stop-color="#2ED3B7"/>
<stop offset="1" stop-color="#134E48"/>
</linearGradient>
<linearGradient id="paint2_linear_773_20358" x1="408.667" y1="664.565" x2="391.101" y2="624.214" gradientUnits="userSpaceOnUse">
<stop stop-color="#15B79E"/>
<stop offset="0.18" stop-color="#2ED3B7" stop-opacity="0"/>
<stop offset="0.835" stop-color="#99F6E0"/>
</linearGradient>
<linearGradient id="paint3_linear_773_20358" x1="360" y1="640" x2="380.192" y2="680.961" gradientUnits="userSpaceOnUse">
<stop stop-color="#2ED3B7"/>
<stop offset="1" stop-color="#134E48"/>
</linearGradient>
<clipPath id="clip0_773_20358">
<rect width="1400" height="1600" rx="80" fill="white"/>
</clipPath>
<clipPath id="clip1_773_20358">
<rect x="358" y="347" width="48" height="24" rx="12" fill="white"/>
</clipPath>
<clipPath id="clip2_773_20358">
<rect x="360" y="640" width="48" height="24" rx="12" fill="white"/>
</clipPath>
<clipPath id="clip3_773_20358">
<rect x="358" y="500" width="48" height="24" rx="12" fill="white"/>
</clipPath>
<clipPath id="clip4_773_20358">
<rect x="362" y="793" width="48" height="24" rx="12" fill="white"/>
</clipPath>
</defs>
</svg>
